HIERARCHY
ROOT Hips
{
	OFFSET	0.00	0.00	0.00
	CHANNELS 6 Xposition Yposition Zposition Zrotation Yrotation Xrotation
	JOINT Spine
	{
		OFFSET	 0.00	0.1	 0.00
		CHANNELS 3 Zrotation Yrotation Xrotation
		JOINT Spine1
		{
			OFFSET	 0.00	 24.5913012437421	 0.00
			CHANNELS 3 Zrotation Yrotation Xrotation
            JOINT Neck
            {
                OFFSET	 0.00	 24.8462964506057	 0.00
                CHANNELS 3 Zrotation Yrotation Xrotation
                JOINT Head
                {
                    OFFSET	 0.00	 9.27524780924562	 0.00
                    CHANNELS 3 Zrotation Yrotation Xrotation
                    End Site
                    {
                        OFFSET	 0.00	 11.4999962169752	 0.00
                    }
                }
            }
			JOINT LeftShoulder
			{
				OFFSET	 0.00	 24.8462964506057	 0.00
				CHANNELS 3 Zrotation Yrotation Xrotation
				JOINT LeftUpArm
				{
					OFFSET	 0.00	 12.4881979654096	 0.00
					CHANNELS 3 Zrotation Yrotation Xrotation
					JOINT LeftForeArm
					{
						OFFSET	 0.00	25.9758046908119	 0.00
						CHANNELS 3 Zrotation Yrotation Xrotation
						JOINT LeftHand
						{
							OFFSET	 0.00	24.5542024364365	 0.00
							CHANNELS 3 Zrotation Yrotation Xrotation
							JOINT LeftHandThumb
							{
								OFFSET	 0.00	0.00	 0.00
								CHANNELS 3 Zrotation Yrotation Xrotation
								End Site
								{
									OFFSET	 0.00	0.00	10.0000003353624
								}
							}
							JOINT L_Wrist_End
							{
								OFFSET	 0.00	9.9999967115358	 0.00
								CHANNELS 3 Zrotation Yrotation Xrotation
								End Site
								{
									OFFSET	 0.00	 0.00	 0.00
								}
							}
						}
					}
				}
			}
			JOINT RightShoulder
			{
				OFFSET	 0.00	 24.8462964506057	 0.00
				CHANNELS 3 Zrotation Yrotation Xrotation
				JOINT RightUpArm
				{
					OFFSET	 0.00	 12.4881979654096	 0.00
					CHANNELS 3 Zrotation Yrotation Xrotation
					JOINT RightForeArm
					{
						OFFSET	 0.00	25.9758046908119	 0.00
						CHANNELS 3 Zrotation Yrotation Xrotation
						JOINT RightHand
						{
							OFFSET	 0.00	24.5542024364365	 0.00
							CHANNELS 3 Zrotation Yrotation Xrotation
							JOINT RightHandThumb
							{
								OFFSET	 0.00	0.00	 0.00
								CHANNELS 3 Zrotation Yrotation Xrotation
								End Site
								{
									OFFSET	 0.00	0.00	10.0000003353624
								}
							}
							JOINT R_Wrist_End
							{
								OFFSET	 0.00	9.9999967115358	 0.00
								CHANNELS 3 Zrotation Yrotation Xrotation
								End Site
								{
									OFFSET	 0.00	 0.00	 0.00
								}
							}
						}
					}
				}
			}
		}
	}
	JOINT LeftUpLeg
	{
		OFFSET	 12.719394002717	 0.00	 0.00
		CHANNELS 3 Zrotation Yrotation Xrotation
		JOINT LeftLowLeg
		{
			OFFSET	 0.00	-43.429100912261	 0.00
			CHANNELS 3 Zrotation Yrotation Xrotation
			JOINT LeftFoot
			{
				OFFSET	 0.00	-44.8767017425826	 0.00
				CHANNELS 3 Zrotation Yrotation Xrotation
				JOINT LeftToeBase
                {
                    OFFSET	 0.00	0.00	 15.1507020887566
                    CHANNELS 3 Zrotation Yrotation Xrotation
                    End Site
                    {
                        OFFSET	 0.00	0.00	 7.5000010571191
                    }
                }
			}
		}
	}
	JOINT RightUpLeg
	{
		OFFSET	 -12.719393604653	 0.00	 0.00
		CHANNELS 3 Zrotation Yrotation Xrotation
		JOINT RightLowLeg
		{
			OFFSET	 0.00	-43.429100912261	 0.00
			CHANNELS 3 Zrotation Yrotation Xrotation
			JOINT RightFoot
			{
				OFFSET	 0.00	-44.8767017425826	 0.00
				CHANNELS 3 Zrotation Yrotation Xrotation
				JOINT RightToeBase
                {
                    OFFSET	 0.00	0.00	 15.1507020887566
                    CHANNELS 3 Zrotation Yrotation Xrotation
                    End Site 
                    {
                        OFFSET	 0.00	0.00	 7.49999965609858
                    }
                }   
			}
		}
	}
}
MOTION 
Frames:	10 
Frame Time: 0.04 
  -2.2947599411010744 14.749099731445312 -17.47729949951172 -8.373011451215724 -13.310384308464343 -21.02132577807771 5.906713000185954 -1.2629998279257098 31.97979074057453 -4.863685337333689 5.328865848861906 5.570049055355646 12.655732237024042 -6.8011619014173705 57.830102395908256 -17.032972131974432 -9.175307191664443 -66.728365583922 -112.67971069746636 10.098913979780363 -2.5476675999120313 -34.57485826990488 -34.91983840924286 8.160363807339927 0.0 0.0 99.96450042724611 57.67753739551239 34.69899706566655 20.084805727762674 0.0 0.0 0.0 0.0 0.0 0.0 115.02432607068053 -4.400804144588733 -7.083771754282421 20.029769045717874 19.094149609391316 0.13685548541029022 0.0 0.0 95.55380249023438 -36.70427743214219 -13.733526024281394 10.171005127759662 0.0 0.0 0.0 0.0 0.0 0.0 -49.35881330706218 17.16478811748454 -101.71715152690912 0.0 0.0 142.7239990234375 -1.8071137910077613 -18.527692420066327 -13.407663863099597 0.0 0.0 -14.320413589477539 56.69450615738027 -19.98303087930673 -96.9779328073547 0.0 0.0 126.82900238037111 62.860446392977444 27.024953581780004 54.22003895097688 0.0 0.0 -19.800340652465824 
  -2.5177799224853517 14.750900268554688 -17.465899658203124 -7.925201361303502 -13.176604954751882 -20.967410169147424 6.272312436465928 -1.7098220449449058 32.12291470980497 -5.113104548984539 5.496216463692661 5.368232393375103 12.5196035660262 -6.032955836845766 57.73337060840365 -16.90650775874532 -9.546774186500814 -66.44408719786944 -112.9623239801988 10.016925667115535 -2.7083348966622234 -35.02211024238357 -34.01953289525932 7.496854407106083 0.0 0.0 100.94300079345703 59.64686179616325 34.30844784260577 20.426200808517592 0.0 0.0 0.0 0.0 0.0 0.0 115.12440236981753 -4.640589730636925 -7.071238444414297 20.52157929698191 18.75825834614273 0.5627753559031986 0.0 0.0 96.13729858398439 -37.22251628127562 -14.700538232332768 11.050459392836597 0.0 0.0 0.0 0.0 0.0 0.0 -49.85143304526796 17.812152946107346 -102.10757822148683 0.0 0.0 142.84800720214844 -2.4260625552869546 -19.382176957282145 -13.083529683574254 0.0 0.0 -14.328244209289553 56.685409289769524 -20.03196757025836 -96.93295023807646 0.0 0.0 126.77999877929688 62.57002069877582 27.107953020691 54.15787227892743 0.0 0.0 -20.2119197845459 
  -2.6648399353027346 14.743899536132812 -17.432400512695313 -7.4236699726320055 -13.07190877024891 -21.036394149817408 6.629453428837649 -2.1863586047852253 32.235897269841374 -5.384897727944684 5.679607632212748 5.443724318612678 12.32156671758134 -5.358509729542801 57.46431185643196 -17.08074257420889 -9.820978288303122 -66.00963577198131 -113.22952597647114 9.943285534636642 -2.841394443639337 -35.62916916104499 -32.906672763374814 6.991042035540582 0.0 0.0 102.01100158691408 60.53784104095021 33.41115424516348 20.154183796770916 0.0 0.0 0.0 0.0 0.0 0.0 115.24538814769615 -4.92937984971742 -6.925519541386823 21.28164187041613 18.394243398736265 1.0816078910113187 0.0 0.0 96.67379760742188 -38.053279847312794 -15.339989941050415 11.901172252671982 0.0 0.0 0.0 0.0 0.0 0.0 -50.56420014403935 18.713029720662153 -102.3272110988046 0.0 0.0 142.91900634765625 -2.7274458683062113 -20.081492911333463 -12.994773840610115 0.0 0.0 -14.57401180267334 56.47864242435348 -20.014479078694457 -96.87833273985828 0.0 0.0 126.84600067138673 61.66480566952067 27.506843399389634 53.755058946270466 0.0 0.0 -20.803810119628906 
  -2.8068000793457033 14.742100524902344 -17.441799926757813 -7.114661966482266 -13.01616501664339 -20.947194977113675 6.963966716333295 -2.6180883763145526 32.336654486338155 -5.443434436756624 5.858999120694611 5.344248161127418 12.17934755253502 -4.580965198636142 57.439017703898294 -17.19336939924189 -10.152881726688411 -65.64357890919528 -113.58256721678667 9.967563454559517 -2.9811779882093155 -36.25374597942821 -31.633597085904952 6.658178129543015 0.0 0.0 102.86100006103516 61.35618813907948 33.26887639211428 20.723749669578694 0.0 0.0 0.0 0.0 0.0 0.0 115.43394602362144 -5.131143032194327 -6.668042141308741 22.095358586904393 17.67244085314994 1.5618966540700625 0.0 0.0 97.11750030517578 -38.549299026220936 -15.89103841748388 12.804670081218333 0.0 0.0 0.0 0.0 0.0 0.0 -51.24933122848408 19.66901447503423 -102.77751792561409 0.0 0.0 142.97900390625 -3.4054806408826552 -20.92701392160202 -12.750100420083301 0.0 0.0 -15.133977890014648 56.648620144546896 -19.881205121883998 -96.95697695627318 0.0 0.0 126.79000091552734 62.647292600255156 26.566798085538053 53.84800371241929 0.0 0.0 -19.861860275268555 
  -2.9193399429321287 14.733299255371094 -17.419099426269533 -6.764254231636464 -13.03581030936529 -20.96885954159587 7.2372976196945675 -2.8531629117742514 32.459166883239895 -5.450649798351085 6.090273789736805 5.294335976461343 12.030783280134319 -4.165215217479388 57.329638459419726 -17.379933629462098 -10.227572252449013 -65.03736322218057 -113.81312464957492 9.967743189703418 -2.935914607307499 -37.025825815362005 -30.200699848953512 6.467542918955278 0.0 0.0 103.39099884033203 62.07138795888731 34.16908290133319 22.069757414920037 0.0 0.0 0.0 0.0 0.0 0.0 115.70269005138569 -5.398825084713214 -6.511570345051165 22.881928625658848 16.81512719793849 2.020869593302095 0.0 0.0 97.36080169677734 -38.41914491471602 -16.754291464075582 13.915855666106902 0.0 0.0 0.0 0.0 0.0 0.0 -51.89691546833587 20.658321155501074 -103.13763247234215 0.0 0.0 143.07899475097656 -3.310296200385222 -21.409975700368896 -12.651520920150796 0.0 0.0 -15.640012741088869 56.47355298632406 -19.70991579457027 -96.85118683906673 0.0 0.0 126.84400177001953 62.140098392454554 26.823723205467978 53.57768564449535 0.0 0.0 -19.880769729614254 
  -2.9835500717163086 14.726600646972656 -17.40379943847656 -6.5722005109915935 -12.913759226651798 -20.917257006549548 7.528656495155634 -3.202469523744531 32.54177508026267 -5.393821404495049 6.287638504780569 5.248680723375719 11.955412876576657 -3.683874325090932 57.21837603391508 -17.365993268925394 -10.338317453786356 -64.70383631827235 -114.1216841820368 9.999286368728768 -2.917362366579223 -37.839027950214664 -28.8628438336335 6.636844575458861 0.0 0.0 103.56700134277344 62.66791201972807 35.46648203037892 23.77739021241389 0.0 0.0 0.0 0.0 0.0 0.0 115.85198676333464 -5.63156272204521 -6.327001128499352 23.725444210478415 15.715561543149704 2.483014496287059 0.0 0.0 97.3147964477539 -38.771563831431386 -18.091260957835356 15.279609178303671 0.0 0.0 0.0 0.0 0.0 0.0 -52.396413585869894 21.22833131519333 -103.35911407134034 0.0 0.0 143.09300231933597 -3.508567706834614 -21.785606421798988 -12.434035329329362 0.0 0.0 -15.923435211181639 56.463385037236 -19.626655486325237 -96.91839574666393 0.0 0.0 126.91799926757812 61.40453850478253 27.195501542093748 52.996382158160586 0.0 0.0 -19.874500274658203 
  -3.027190017700195 14.720199584960938 -17.373199462890625 -6.384565191702508 -12.811377587848568 -20.902934543337718 7.7498033451551285 -3.399942463998748 32.6428779245165 -5.190939844104914 6.499548424084458 5.23805945332021 11.852645415996742 -3.4318297779578697 57.053605169623424 -17.326795741686066 -10.466294825131518 -64.49225386241471 -114.292041265415 9.908515962187115 -2.8930899220415287 -38.68130602685743 -27.045809925612225 7.024277341695144 0.0 0.0 103.22100067138672 63.055919545212966 35.45132514043633 24.358877812863767 0.0 0.0 0.0 0.0 0.0 0.0 115.96186699714818 -5.748277259634001 -6.191846538226592 24.34535112876744 14.414619126481131 2.7719673184345575 0.0 0.0 97.25689697265625 -39.06624139947534 -19.110789310770112 16.12656149636217 0.0 0.0 0.0 0.0 0.0 0.0 -52.85756622623466 21.490704758843385 -103.50084853586672 0.0 0.0 143.05099487304688 -4.018254792208573 -22.049388665609246 -12.254480462960158 0.0 0.0 -16.046470642089844 56.32850131716756 -19.44162808302043 -96.92961350211313 0.0 0.0 126.97799682617188 60.77143854845996 27.58564852283004 52.497689533711394 0.0 0.0 -20.016738891601562 
  -3.0224599838256836 14.7031005859375 -17.356599426269533 -6.346823834448698 -12.724728314087576 -20.75719400923197 8.06033949616907 -3.6778310318345393 32.678860130804516 -5.078835784632695 6.789201259675668 5.16397795474823 11.759672183028213 -3.3310649007736366 56.78284440719693 -17.35499678561289 -10.421149261183615 -64.15327781199437 -114.4703735478377 9.997925543499866 -2.7476265494686603 -39.546031749581665 -25.85683165190039 7.604226988257755 0.0 0.0 102.73699951171875 63.112043602909004 36.50180244718344 24.859037757241612 0.0 0.0 0.0 0.0 0.0 0.0 116.07373516777282 -5.99380557373679 -6.077066043384647 25.001190114092623 13.414350111201102 3.08388316813822 0.0 0.0 97.15540313720703 -39.15683037123681 -18.942470554231985 16.10331069206351 0.0 0.0 0.0 0.0 0.0 0.0 -52.77388821558268 21.302284230241735 -103.48564643096397 0.0 0.0 143.0959930419922 -4.322422462906426 -22.391413171805482 -12.242215730859458 0.0 0.0 -15.909456253051754 56.31560991223699 -19.22761573081331 -97.11046050603845 0.0 0.0 127.06099700927736 60.52089814031492 27.658015490627324 52.20533509183756 0.0 0.0 -20.0606689453125 
  -3.0111799240112305 14.67969970703125 -17.324200439453126 -6.2411229210417885 -12.744270093943342 -20.65839286666641 8.199759268953818 -3.771674486863762 32.69411308601051 -4.784236002910178 6.976329073839172 5.180578432888632 11.674702120377 -2.971436737363179 56.63199131609594 -17.222510951871616 -10.574015567020169 -63.95867426846615 -114.57489375329075 9.865127054027601 -2.6229602393121816 -40.36657060941754 -24.502907801835132 7.9990449638849555 0.0 0.0 102.14700317382812 63.426227312128255 36.9603304219704 24.89143993485049 0.0 0.0 0.0 0.0 0.0 0.0 116.05819465739364 -6.095067807287257 -5.921834159450838 25.548225418530176 12.299780270987565 3.267683786417545 0.0 0.0 97.12290191650392 -39.08465403655348 -18.668030601761828 15.819318669250238 0.0 0.0 0.0 0.0 0.0 0.0 -52.765447338417076 21.047487422093678 -103.5266588191154 0.0 0.0 143.11399841308594 -4.429158334663842 -22.40804067833442 -12.253797054087398 0.0 0.0 -15.846556663513185 56.30053021817138 -19.050180378504834 -97.23904857136228 0.0 0.0 127.19799804687501 60.40012980752645 27.548745820929014 51.97583786363654 0.0 0.0 -19.92662048339844 
  -3.0116899490356444 14.660899353027343 -17.30590057373047 -6.2206339722912505 -12.931445860511955 -20.415090554578235 8.287705732387058 -3.853708682198479 32.60653470215043 -4.5821316450381655 7.098677771810041 5.173805080042483 11.651452559855638 -2.652040754886691 56.49528340505898 -17.30706874034336 -10.523661017383771 -63.6650068376538 -114.80661663315692 9.795631248158978 -2.524163376598666 -40.950394739054225 -23.723627858696386 8.176621582500013 0.0 0.0 101.91100311279297 62.46386015860704 36.45583225149066 24.37697812545591 0.0 0.0 0.0 0.0 0.0 0.0 116.13874023828437 -6.313203348168993 -5.688278335947062 26.121248584017216 11.434564392510696 3.6183406060606376 0.0 0.0 97.02189636230469 -39.422497674708715 -19.394853613139972 15.869119705990196 0.0 0.0 0.0 0.0 0.0 0.0 -52.82343123000651 20.76493734383301 -103.7792313387308 0.0 0.0 143.16799926757812 -4.089767387962604 -22.03063937991896 -12.4272060151109 0.0 0.0 -15.823911666870117 56.45810269675999 -18.88177426256371 -97.29427733086892 0.0 0.0 127.18599700927734 60.67411865542873 27.251523555376654 52.1443156641421 0.0 0.0 -19.929901123046875 
